<?xml version="1.0" encoding="UTF-8"?><svg xmlns="http://www.w3.org/2000/svg" viewBox="0 0 251.63 55.17"><defs><style>.d{fill:#009640;}</style></defs><g id="a"/><g id="b"><g id="c"><g><path class="d" d="M4.64,49.62c.97,1.01,2.09,1.88,3.36,2.61,6.38,2.04,16.18-1.69,24.22-9.82,3.69-3.73,6.49-7.88,8.27-11.92v-2.43c-1.72,4.45-4.72,9.09-8.8,13.21-9.35,9.44-21.07,12.96-27.04,8.36Z"/><path class="d" d="M12.95,54.2c1.16,.3,2.4,.51,3.71,.65,5.57-.91,12.06-4.44,17.67-10.14,2.45-2.48,4.51-5.15,6.14-7.84,0-.2,0-.39,0-.6v-1.67c-1.73,3.16-4.07,6.32-6.95,9.22-6.62,6.72-14.46,10.43-20.58,10.37Z"/><path class="d" d="M22.78,54.94c1.56-.11,3.02-.33,4.38-.66,7.18-1.7,11.62-6.27,12.92-13.34-1.28,1.78-2.75,3.53-4.4,5.2-4.07,4.12-8.6,7.12-12.9,8.81Z"/><path class="d" d="M27.06,.08V36.28c0,5.8-1.93,7.76-4.43,8.36h0c-.76,.18-1.57,.24-2.39,.24-3.54,0-6.82-1.04-6.82-8.6V.08H0V36.28c0,5,1.23,9.07,3.59,12.12,6.02,4.29,17.56,.75,26.74-8.56,5.52-5.59,9.06-12.13,10.15-17.85V.08h-13.42Z"/><path class="d" d="M60.26,10.07c-.68,0-1.33,.03-1.96,.09v-.03c-1.32,.09-2.56,.28-3.71,.55-4.88,1.15-8.22,3.92-9.83,8.14-.11,.3-.22,.6-.31,.91-.14,.44-.26,.9-.36,1.37-.29,1.34-.44,2.79-.44,4.36v29.71h11.02V25.46c0-4.76,1.58-6.37,3.63-6.86h0c.62-.15,1.29-.2,1.96-.2,2.91,0,5.6,.85,5.6,7.06v29.71h11.02V25.46c0-9.93-5.9-15.39-16.61-15.39Z"/><path class="d" d="M96.59,10.07c-10.71,0-16.61,5.47-16.61,15.39v14.24c0,9.98,5.9,15.48,16.61,15.48s16.61-5.5,16.61-15.48v-14.24c0-9.93-5.9-15.39-16.61-15.39Zm5.6,29.63c0,6.28-2.69,7.14-5.6,7.14s-5.68-.87-5.68-7.14v-14.24c0-6.2,2.73-7.06,5.68-7.06s5.6,.85,5.6,7.06v14.24Z"/><path class="d" d="M149.5,25.03c0-.17,0-.34,0-.5-.36-9.35-6.22-14.48-16.6-14.48s-16.61,5.47-16.61,15.39h0v14.24h0c0,9.98,5.9,15.48,16.61,15.48,.36,0,.72,0,1.07-.02,10.04-.36,15.55-5.81,15.55-15.46v-.26h-11.02v2.7c0,2.77-.86,4.53-4.99,4.69-.2,0-.4,.02-.61,.02-2.58,0-4.99-.66-5.55-5.03-.08-.62-.12-1.32-.12-2.11v-2.91h22.29v-11.32h0c0-.14,0-.28,0-.41Zm-11.01,3.41h-11.27v-2.99c0-6.2,2.73-7.06,5.68-7.06,2.54,0,4.92,.65,5.47,4.97,.08,.62,.12,1.31,.12,2.08v2.99Z"/><path class="d" d="M198.46,0h-10.91V40.78c.41,9.07,6.01,14.14,15.9,14.37h11.72v-9.53h-10.86c-.22,0-.88,0-.94-.02-2.8-.32-4.77-3.06-4.9-5.92V18.62h16.7V9.87l-16.7-.02V0Z"/><path class="d" d="M184.37,23.7v-1.55c0-1.06-.11-2.28-.45-3.53-1.07-4.02-4.46-8.38-14.03-8.74-1.41,0-3.14,.02-3.17,.02-.13,0-1.65,.14-1.74,.15-.24,.03-.48,.06-.71,.09-.13,.02-.73,.12-.9,.15-.19,.04-.74,.15-.83,.17-8.3,1.93-9.76,7.93-9.77,11.73,0,.03,0,.05,0,.08,0,.04,0,.09,0,.13,0,.07,0,.13,0,.2,0,.03,0,.07,0,.1,.28,5.09,4.52,9.45,12.93,13.3,4.97,2.31,7.71,4.71,7.71,6.74,0,.04,0,.07,0,.11h0c0,2.02-.38,3.98-4.86,3.98-1.28,0-2.21-.16-2.91-.44-1.75-.69-1.95-2.1-1.95-3.53v-3.45h-10.94v3.45c0,1.06,.11,2.28,.45,3.53,1.07,4.02,4.46,8.38,14.03,8.74,.43,.02,.87,.03,1.32,.03,.56,0,1.08-.02,1.6-.04,.13,0,.22,0,.25,0,.13,0,.26-.02,.39-.03,.08,0,.16-.01,.23-.02,.28-.02,.56-.05,.84-.08,.09,0,.18-.02,.27-.03,.24-.03,.48-.06,.71-.09,.13-.02,.26-.04,.39-.06,.17-.03,.34-.06,.51-.09,.19-.04,.38-.07,.56-.11,.09-.02,.18-.04,.27-.06,8.3-1.93,9.76-7.93,9.77-11.73,0-.03,0-.05,0-.08,0-.04,0-.09,0-.13,0-.07,0-.13,0-.2,0-.03,0-.07,0-.1-.28-5.09-4.52-9.45-12.93-13.3-4.97-2.31-7.71-4.71-7.71-6.74,0-.04,0-.12,0-.12,0-2.01,.38-3.97,4.86-3.97,1.28,0,2.21,.16,2.91,.44,1.75,.69,1.95,2.1,1.95,3.53v1.55h10.94Z"/><path class="d" d="M251.62,25.03c0-.17,0-.34,0-.5-.36-9.35-6.22-14.48-16.6-14.48s-16.61,5.47-16.61,15.39h0v14.24h0c0,9.98,5.9,15.48,16.61,15.48,.36,0,.72,0,1.07-.02,10.04-.36,15.55-5.81,15.55-15.46v-.26h-11.02v2.7c0,2.77-.86,4.53-4.99,4.69-.2,0-.4,.02-.61,.02-2.58,0-4.99-.66-5.55-5.03-.08-.62-.12-1.32-.12-2.11v-2.91h22.29v-11.32h0c0-.14,0-.28,0-.41Zm-11.01,3.41h-11.27v-2.99c0-6.2,2.73-7.06,5.68-7.06,2.54,0,4.92,.65,5.47,4.97,.08,.62,.12,1.31,.12,2.08v2.99Z"/></g></g></g></svg>